# xmcd
#
# Track frame offsets: 
#        150
#        19118
#        39588
#        58050
#        80043
#        99763
#        118155
#        138568
#        155393
#        176938
#        203205
#        222380
#
# Disc length: 3242 seconds
#
# Revision: 0
# Processed by: cddbd v1.4PL0 Copyright (c) Steve Scherf et al.
# Submitted via: ExactAudioCopy v0.95a1
#
DISCID=ad0ca80c
DTITLE=絕妙歌手 - 國語排行榜三
DYEAR=1999
DGENRE=A Cappella
TTITLE0=天空
TTITLE1=你喜歡的會有幾個
TTITLE2=相約到永久
TTITLE3=用盡一生的愛
TTITLE4=有緣千里別
TTITLE5=讓我最後才知道
TTITLE6=心痛
TTITLE7=有一點心動
TTITLE8=領悟
TTITLE9=愛與愁
TTITLE10=偷心
TTITLE11=燃燒一瞬間
EXTD=
EXTT0=
EXTT1=
EXTT2=
EXTT3=
EXTT4=
EXTT5=
EXTT6=
EXTT7=
EXTT8=
EXTT9=
EXTT10=
EXTT11=
PLAYORDER=
